<mxfile host="app.diagrams.net" modified="2023-10-21T18:16:58.525Z" agent="Mozilla/5.0 (Windows NT 10.0; Win64; x64) AppleWebKit/537.36 (KHTML, like Gecko) Chrome/116.0.0.0 Safari/537.36 OPR/102.0.0.0 (Edition std-1)" etag="jG70vj1JMx0GsIWkpoHP" version="22.0.6" type="device">
  <diagram name="PÃ¡gina-1" id="BLHAe64FbkD4dF2wofO8">
    <mxGraphModel dx="2220" dy="1927" grid="1" gridSize="10" guides="1" tooltips="1" connect="1" arrows="1" fold="1" page="1" pageScale="1" pageWidth="827" pageHeight="1169" math="0" shadow="0">
      <root>
        <mxCell id="0" />
        <mxCell id="1" parent="0" />
        <mxCell id="_-6VbGl6MHD9hkDtcDc3-6" style="rounded=0;orthogonalLoop=1;jettySize=auto;html=1;exitX=0;exitY=0.5;exitDx=0;exitDy=0;entryX=0;entryY=0.5;entryDx=0;entryDy=0;" parent="1" target="_-6VbGl6MHD9hkDtcDc3-2" edge="1">
          <mxGeometry relative="1" as="geometry">
            <mxPoint x="232.00300858899115" y="199.99572875253799" as="sourcePoint" />
            <mxPoint x="413.97" y="48.28" as="targetPoint" />
          </mxGeometry>
        </mxCell>
        <mxCell id="_-6VbGl6MHD9hkDtcDc3-1" value="Dresstore" style="ellipse;whiteSpace=wrap;html=1;fillColor=#60a917;fontColor=#ffffff;strokeColor=#2D7600;" parent="1" vertex="1">
          <mxGeometry x="120" y="190" width="150" height="80" as="geometry" />
        </mxCell>
        <mxCell id="_-6VbGl6MHD9hkDtcDc3-2" value="Registro" style="rounded=0;whiteSpace=wrap;html=1;fillColor=#f8cecc;strokeColor=#b85450;" parent="1" vertex="1">
          <mxGeometry x="430" y="20" width="120" height="60" as="geometry" />
        </mxCell>
        <mxCell id="_-6VbGl6MHD9hkDtcDc3-3" value="Figuras" style="rounded=0;whiteSpace=wrap;html=1;fillColor=#f8cecc;strokeColor=#b85450;" parent="1" vertex="1">
          <mxGeometry x="430" y="120" width="120" height="60" as="geometry" />
        </mxCell>
        <mxCell id="_-6VbGl6MHD9hkDtcDc3-4" value="Mangas" style="rounded=0;whiteSpace=wrap;html=1;fillColor=#f8cecc;strokeColor=#b85450;" parent="1" vertex="1">
          <mxGeometry x="430" y="230" width="120" height="60" as="geometry" />
        </mxCell>
        <mxCell id="_-6VbGl6MHD9hkDtcDc3-5" value="Merchandising" style="rounded=0;whiteSpace=wrap;html=1;fillColor=#f8cecc;strokeColor=#b85450;" parent="1" vertex="1">
          <mxGeometry x="430" y="340" width="120" height="60" as="geometry" />
        </mxCell>
        <mxCell id="_-6VbGl6MHD9hkDtcDc3-7" value="" style="endArrow=classic;html=1;rounded=0;exitX=0.94;exitY=0.25;exitDx=0;exitDy=0;exitPerimeter=0;entryX=0;entryY=0.5;entryDx=0;entryDy=0;" parent="1" source="_-6VbGl6MHD9hkDtcDc3-1" target="_-6VbGl6MHD9hkDtcDc3-3" edge="1">
          <mxGeometry width="50" height="50" relative="1" as="geometry">
            <mxPoint x="270" y="220" as="sourcePoint" />
            <mxPoint x="320" y="170" as="targetPoint" />
          </mxGeometry>
        </mxCell>
        <mxCell id="_-6VbGl6MHD9hkDtcDc3-8" value="" style="endArrow=classic;html=1;rounded=0;exitX=1;exitY=0.5;exitDx=0;exitDy=0;entryX=0;entryY=0.5;entryDx=0;entryDy=0;" parent="1" source="_-6VbGl6MHD9hkDtcDc3-1" target="_-6VbGl6MHD9hkDtcDc3-4" edge="1">
          <mxGeometry width="50" height="50" relative="1" as="geometry">
            <mxPoint x="280" y="290" as="sourcePoint" />
            <mxPoint x="330" y="240" as="targetPoint" />
          </mxGeometry>
        </mxCell>
        <mxCell id="_-6VbGl6MHD9hkDtcDc3-9" value="" style="endArrow=classic;html=1;rounded=0;exitX=1;exitY=1;exitDx=0;exitDy=0;entryX=0;entryY=0.5;entryDx=0;entryDy=0;" parent="1" source="_-6VbGl6MHD9hkDtcDc3-1" target="_-6VbGl6MHD9hkDtcDc3-5" edge="1">
          <mxGeometry width="50" height="50" relative="1" as="geometry">
            <mxPoint x="300" y="350" as="sourcePoint" />
            <mxPoint x="350" y="300" as="targetPoint" />
          </mxGeometry>
        </mxCell>
        <mxCell id="_-6VbGl6MHD9hkDtcDc3-10" value="Registrarte" style="ellipse;whiteSpace=wrap;html=1;align=center;newEdgeStyle={&quot;edgeStyle&quot;:&quot;entityRelationEdgeStyle&quot;,&quot;startArrow&quot;:&quot;none&quot;,&quot;endArrow&quot;:&quot;none&quot;,&quot;segment&quot;:10,&quot;curved&quot;:1,&quot;sourcePerimeterSpacing&quot;:0,&quot;targetPerimeterSpacing&quot;:0};treeFolding=1;treeMoving=1;fillColor=#e1d5e7;strokeColor=#9673a6;" parent="1" vertex="1">
          <mxGeometry x="640" y="-40" width="130" height="40" as="geometry" />
        </mxCell>
        <mxCell id="_-6VbGl6MHD9hkDtcDc3-12" value="" style="endArrow=none;html=1;rounded=0;entryX=0;entryY=0.5;entryDx=0;entryDy=0;exitX=1;exitY=0.25;exitDx=0;exitDy=0;" parent="1" source="_-6VbGl6MHD9hkDtcDc3-2" target="_-6VbGl6MHD9hkDtcDc3-10" edge="1">
          <mxGeometry relative="1" as="geometry">
            <mxPoint x="540" y="40" as="sourcePoint" />
            <mxPoint x="700" y="40" as="targetPoint" />
          </mxGeometry>
        </mxCell>
        <mxCell id="_-6VbGl6MHD9hkDtcDc3-13" value="Login" style="ellipse;whiteSpace=wrap;html=1;align=center;newEdgeStyle={&quot;edgeStyle&quot;:&quot;entityRelationEdgeStyle&quot;,&quot;startArrow&quot;:&quot;none&quot;,&quot;endArrow&quot;:&quot;none&quot;,&quot;segment&quot;:10,&quot;curved&quot;:1,&quot;sourcePerimeterSpacing&quot;:0,&quot;targetPerimeterSpacing&quot;:0};treeFolding=1;treeMoving=1;fillColor=#e1d5e7;strokeColor=#9673a6;" parent="1" vertex="1">
          <mxGeometry x="675" y="20" width="125" height="50" as="geometry" />
        </mxCell>
        <mxCell id="_-6VbGl6MHD9hkDtcDc3-14" value="" style="endArrow=none;html=1;rounded=0;entryX=0;entryY=0.5;entryDx=0;entryDy=0;exitX=1;exitY=0.25;exitDx=0;exitDy=0;" parent="1" target="_-6VbGl6MHD9hkDtcDc3-13" edge="1">
          <mxGeometry relative="1" as="geometry">
            <mxPoint x="550" y="55" as="sourcePoint" />
            <mxPoint x="640" as="targetPoint" />
          </mxGeometry>
        </mxCell>
        <mxCell id="_-6VbGl6MHD9hkDtcDc3-15" value="Buscar Producto" style="ellipse;whiteSpace=wrap;html=1;align=center;newEdgeStyle={&quot;edgeStyle&quot;:&quot;entityRelationEdgeStyle&quot;,&quot;startArrow&quot;:&quot;none&quot;,&quot;endArrow&quot;:&quot;none&quot;,&quot;segment&quot;:10,&quot;curved&quot;:1,&quot;sourcePerimeterSpacing&quot;:0,&quot;targetPerimeterSpacing&quot;:0};treeFolding=1;treeMoving=1;fillColor=#e1d5e7;strokeColor=#9673a6;" parent="1" vertex="1">
          <mxGeometry x="675" y="100" width="100" height="40" as="geometry" />
        </mxCell>
        <mxCell id="_-6VbGl6MHD9hkDtcDc3-16" value="" style="endArrow=none;html=1;rounded=0;exitX=1;exitY=0.25;exitDx=0;exitDy=0;entryX=0;entryY=0.5;entryDx=0;entryDy=0;" parent="1" target="_-6VbGl6MHD9hkDtcDc3-15" edge="1">
          <mxGeometry relative="1" as="geometry">
            <mxPoint x="550" y="140" as="sourcePoint" />
            <mxPoint x="670" y="120" as="targetPoint" />
            <Array as="points" />
          </mxGeometry>
        </mxCell>
        <mxCell id="_-6VbGl6MHD9hkDtcDc3-17" value="Comprar Producto" style="ellipse;whiteSpace=wrap;html=1;align=center;newEdgeStyle={&quot;edgeStyle&quot;:&quot;entityRelationEdgeStyle&quot;,&quot;startArrow&quot;:&quot;none&quot;,&quot;endArrow&quot;:&quot;none&quot;,&quot;segment&quot;:10,&quot;curved&quot;:1,&quot;sourcePerimeterSpacing&quot;:0,&quot;targetPerimeterSpacing&quot;:0};treeFolding=1;treeMoving=1;fillColor=#e1d5e7;strokeColor=#9673a6;" parent="1" vertex="1">
          <mxGeometry x="675" y="180" width="105" height="40" as="geometry" />
        </mxCell>
        <mxCell id="_-6VbGl6MHD9hkDtcDc3-18" value="" style="endArrow=none;html=1;rounded=0;entryX=0;entryY=0.5;entryDx=0;entryDy=0;exitX=1;exitY=0.25;exitDx=0;exitDy=0;" parent="1" target="_-6VbGl6MHD9hkDtcDc3-17" edge="1">
          <mxGeometry relative="1" as="geometry">
            <mxPoint x="550" y="170" as="sourcePoint" />
            <mxPoint x="680" y="160" as="targetPoint" />
            <Array as="points" />
          </mxGeometry>
        </mxCell>
        <mxCell id="_-6VbGl6MHD9hkDtcDc3-19" value="Buscar Producto" style="ellipse;whiteSpace=wrap;html=1;align=center;newEdgeStyle={&quot;edgeStyle&quot;:&quot;entityRelationEdgeStyle&quot;,&quot;startArrow&quot;:&quot;none&quot;,&quot;endArrow&quot;:&quot;none&quot;,&quot;segment&quot;:10,&quot;curved&quot;:1,&quot;sourcePerimeterSpacing&quot;:0,&quot;targetPerimeterSpacing&quot;:0};treeFolding=1;treeMoving=1;" parent="1" vertex="1">
          <mxGeometry x="-570" y="720" width="100" height="40" as="geometry" />
        </mxCell>
        <mxCell id="_-6VbGl6MHD9hkDtcDc3-20" value="Comprar Producto" style="ellipse;whiteSpace=wrap;html=1;align=center;newEdgeStyle={&quot;edgeStyle&quot;:&quot;entityRelationEdgeStyle&quot;,&quot;startArrow&quot;:&quot;none&quot;,&quot;endArrow&quot;:&quot;none&quot;,&quot;segment&quot;:10,&quot;curved&quot;:1,&quot;sourcePerimeterSpacing&quot;:0,&quot;targetPerimeterSpacing&quot;:0};treeFolding=1;treeMoving=1;fillColor=#e1d5e7;strokeColor=#9673a6;" parent="1" vertex="1">
          <mxGeometry x="675" y="290" width="105" height="40" as="geometry" />
        </mxCell>
        <mxCell id="_-6VbGl6MHD9hkDtcDc3-22" value="" style="endArrow=none;html=1;rounded=0;entryX=0;entryY=0.5;entryDx=0;entryDy=0;exitX=1.008;exitY=0.867;exitDx=0;exitDy=0;exitPerimeter=0;" parent="1" source="_-6VbGl6MHD9hkDtcDc3-4" target="_-6VbGl6MHD9hkDtcDc3-20" edge="1">
          <mxGeometry relative="1" as="geometry">
            <mxPoint x="547.5" y="270" as="sourcePoint" />
            <mxPoint x="672.5" y="300" as="targetPoint" />
            <Array as="points" />
          </mxGeometry>
        </mxCell>
        <mxCell id="_-6VbGl6MHD9hkDtcDc3-23" value="Buscar Producto" style="ellipse;whiteSpace=wrap;html=1;align=center;newEdgeStyle={&quot;edgeStyle&quot;:&quot;entityRelationEdgeStyle&quot;,&quot;startArrow&quot;:&quot;none&quot;,&quot;endArrow&quot;:&quot;none&quot;,&quot;segment&quot;:10,&quot;curved&quot;:1,&quot;sourcePerimeterSpacing&quot;:0,&quot;targetPerimeterSpacing&quot;:0};treeFolding=1;treeMoving=1;fillColor=#e1d5e7;strokeColor=#9673a6;" parent="1" vertex="1">
          <mxGeometry x="670" y="230" width="100" height="40" as="geometry" />
        </mxCell>
        <mxCell id="_-6VbGl6MHD9hkDtcDc3-24" value="" style="endArrow=none;html=1;rounded=0;exitX=1;exitY=0.25;exitDx=0;exitDy=0;entryX=0;entryY=0.5;entryDx=0;entryDy=0;" parent="1" target="_-6VbGl6MHD9hkDtcDc3-23" edge="1">
          <mxGeometry relative="1" as="geometry">
            <mxPoint x="550" y="250" as="sourcePoint" />
            <mxPoint x="675" y="230" as="targetPoint" />
            <Array as="points" />
          </mxGeometry>
        </mxCell>
        <mxCell id="_-6VbGl6MHD9hkDtcDc3-25" value="Comprar Producto" style="ellipse;whiteSpace=wrap;html=1;align=center;newEdgeStyle={&quot;edgeStyle&quot;:&quot;entityRelationEdgeStyle&quot;,&quot;startArrow&quot;:&quot;none&quot;,&quot;endArrow&quot;:&quot;none&quot;,&quot;segment&quot;:10,&quot;curved&quot;:1,&quot;sourcePerimeterSpacing&quot;:0,&quot;targetPerimeterSpacing&quot;:0};treeFolding=1;treeMoving=1;fillColor=#e1d5e7;strokeColor=#9673a6;" parent="1" vertex="1">
          <mxGeometry x="675" y="400" width="105" height="40" as="geometry" />
        </mxCell>
        <mxCell id="_-6VbGl6MHD9hkDtcDc3-26" value="" style="endArrow=none;html=1;rounded=0;entryX=0;entryY=0.5;entryDx=0;entryDy=0;exitX=1.008;exitY=0.867;exitDx=0;exitDy=0;exitPerimeter=0;" parent="1" target="_-6VbGl6MHD9hkDtcDc3-25" edge="1">
          <mxGeometry relative="1" as="geometry">
            <mxPoint x="550" y="390" as="sourcePoint" />
            <mxPoint x="674" y="418" as="targetPoint" />
            <Array as="points" />
          </mxGeometry>
        </mxCell>
        <mxCell id="_-6VbGl6MHD9hkDtcDc3-27" value="Buscar Producto" style="ellipse;whiteSpace=wrap;html=1;align=center;newEdgeStyle={&quot;edgeStyle&quot;:&quot;entityRelationEdgeStyle&quot;,&quot;startArrow&quot;:&quot;none&quot;,&quot;endArrow&quot;:&quot;none&quot;,&quot;segment&quot;:10,&quot;curved&quot;:1,&quot;sourcePerimeterSpacing&quot;:0,&quot;targetPerimeterSpacing&quot;:0};treeFolding=1;treeMoving=1;fillColor=#e1d5e7;strokeColor=#9673a6;" parent="1" vertex="1">
          <mxGeometry x="680" y="350" width="100" height="40" as="geometry" />
        </mxCell>
        <mxCell id="_-6VbGl6MHD9hkDtcDc3-28" value="" style="endArrow=none;html=1;rounded=0;exitX=1;exitY=0.25;exitDx=0;exitDy=0;entryX=0;entryY=0.5;entryDx=0;entryDy=0;" parent="1" target="_-6VbGl6MHD9hkDtcDc3-27" edge="1">
          <mxGeometry relative="1" as="geometry">
            <mxPoint x="550" y="360" as="sourcePoint" />
            <mxPoint x="670" y="360" as="targetPoint" />
            <Array as="points" />
          </mxGeometry>
        </mxCell>
        <mxCell id="GJn4sG62kLBuVspIbrLE-1" value="" style="rounded=0;whiteSpace=wrap;html=1;" vertex="1" parent="1">
          <mxGeometry x="870" y="-40" width="280" height="60" as="geometry" />
        </mxCell>
        <mxCell id="GJn4sG62kLBuVspIbrLE-2" value="En esta pÃ¡gina los usuarios podrÃ¡n registrase o loguearse." style="text;html=1;strokeColor=none;fillColor=none;align=center;verticalAlign=middle;whiteSpace=wrap;rounded=0;" vertex="1" parent="1">
          <mxGeometry x="920" y="-20" width="160" height="30" as="geometry" />
        </mxCell>
        <mxCell id="GJn4sG62kLBuVspIbrLE-3" value="" style="endArrow=none;html=1;rounded=0;exitX=1;exitY=0.5;exitDx=0;exitDy=0;entryX=0;entryY=0.25;entryDx=0;entryDy=0;" edge="1" parent="1" source="_-6VbGl6MHD9hkDtcDc3-10" target="GJn4sG62kLBuVspIbrLE-1">
          <mxGeometry width="50" height="50" relative="1" as="geometry">
            <mxPoint x="760" y="-10" as="sourcePoint" />
            <mxPoint x="810" y="-60" as="targetPoint" />
          </mxGeometry>
        </mxCell>
        <mxCell id="GJn4sG62kLBuVspIbrLE-4" value="" style="endArrow=none;html=1;rounded=0;exitX=1;exitY=0.5;exitDx=0;exitDy=0;entryX=0;entryY=0.5;entryDx=0;entryDy=0;" edge="1" parent="1" target="GJn4sG62kLBuVspIbrLE-1">
          <mxGeometry width="50" height="50" relative="1" as="geometry">
            <mxPoint x="800" y="45" as="sourcePoint" />
            <mxPoint x="900" y="30" as="targetPoint" />
          </mxGeometry>
        </mxCell>
        <mxCell id="GJn4sG62kLBuVspIbrLE-5" value="" style="rounded=0;whiteSpace=wrap;html=1;" vertex="1" parent="1">
          <mxGeometry x="827" y="130" width="280" height="60" as="geometry" />
        </mxCell>
        <mxCell id="GJn4sG62kLBuVspIbrLE-6" value="En esta pÃ¡gina el usuario podrÃ¡ encontrar el producto que quiera adquirir" style="text;html=1;strokeColor=none;fillColor=none;align=center;verticalAlign=middle;whiteSpace=wrap;rounded=0;" vertex="1" parent="1">
          <mxGeometry x="892" y="145" width="150" height="30" as="geometry" />
        </mxCell>
        <mxCell id="GJn4sG62kLBuVspIbrLE-7" value="" style="endArrow=none;html=1;rounded=0;exitX=1;exitY=0.5;exitDx=0;exitDy=0;entryX=0;entryY=0.25;entryDx=0;entryDy=0;" edge="1" parent="1" source="_-6VbGl6MHD9hkDtcDc3-15" target="GJn4sG62kLBuVspIbrLE-5">
          <mxGeometry width="50" height="50" relative="1" as="geometry">
            <mxPoint x="775" y="122.5" as="sourcePoint" />
            <mxPoint x="875" y="117.5" as="targetPoint" />
          </mxGeometry>
        </mxCell>
        <mxCell id="GJn4sG62kLBuVspIbrLE-8" value="" style="endArrow=none;html=1;rounded=0;exitX=1;exitY=0.5;exitDx=0;exitDy=0;entryX=-0.011;entryY=0.633;entryDx=0;entryDy=0;entryPerimeter=0;" edge="1" parent="1" source="_-6VbGl6MHD9hkDtcDc3-17" target="GJn4sG62kLBuVspIbrLE-5">
          <mxGeometry width="50" height="50" relative="1" as="geometry">
            <mxPoint x="790" y="202.5" as="sourcePoint" />
            <mxPoint x="890" y="197.5" as="targetPoint" />
          </mxGeometry>
        </mxCell>
        <mxCell id="GJn4sG62kLBuVspIbrLE-10" value="" style="rounded=0;whiteSpace=wrap;html=1;" vertex="1" parent="1">
          <mxGeometry x="810" y="250" width="280" height="60" as="geometry" />
        </mxCell>
        <mxCell id="GJn4sG62kLBuVspIbrLE-11" value="En esta pÃ¡gina el usuario podrÃ¡ encontrar el producto que quiera adquirir" style="text;html=1;strokeColor=none;fillColor=none;align=center;verticalAlign=middle;whiteSpace=wrap;rounded=0;" vertex="1" parent="1">
          <mxGeometry x="875" y="265" width="150" height="30" as="geometry" />
        </mxCell>
        <mxCell id="GJn4sG62kLBuVspIbrLE-12" value="" style="endArrow=none;html=1;rounded=0;entryX=0;entryY=0.25;entryDx=0;entryDy=0;" edge="1" parent="1" target="GJn4sG62kLBuVspIbrLE-10">
          <mxGeometry width="50" height="50" relative="1" as="geometry">
            <mxPoint x="770" y="250" as="sourcePoint" />
            <mxPoint x="822" y="275" as="targetPoint" />
          </mxGeometry>
        </mxCell>
        <mxCell id="GJn4sG62kLBuVspIbrLE-14" value="" style="endArrow=none;html=1;rounded=0;entryX=0;entryY=0.75;entryDx=0;entryDy=0;" edge="1" parent="1" target="GJn4sG62kLBuVspIbrLE-10">
          <mxGeometry width="50" height="50" relative="1" as="geometry">
            <mxPoint x="780" y="310" as="sourcePoint" />
            <mxPoint x="824" y="278" as="targetPoint" />
          </mxGeometry>
        </mxCell>
        <mxCell id="GJn4sG62kLBuVspIbrLE-15" value="" style="rounded=0;whiteSpace=wrap;html=1;" vertex="1" parent="1">
          <mxGeometry x="820" y="370" width="280" height="60" as="geometry" />
        </mxCell>
        <mxCell id="GJn4sG62kLBuVspIbrLE-16" value="En esta pÃ¡gina el usuario podrÃ¡ encontrar el producto que quiera adquirir" style="text;html=1;strokeColor=none;fillColor=none;align=center;verticalAlign=middle;whiteSpace=wrap;rounded=0;" vertex="1" parent="1">
          <mxGeometry x="875" y="385" width="150" height="30" as="geometry" />
        </mxCell>
        <mxCell id="GJn4sG62kLBuVspIbrLE-18" value="" style="endArrow=none;html=1;rounded=0;entryX=0;entryY=0.25;entryDx=0;entryDy=0;exitX=1;exitY=0.5;exitDx=0;exitDy=0;exitPerimeter=0;" edge="1" parent="1" source="_-6VbGl6MHD9hkDtcDc3-27" target="GJn4sG62kLBuVspIbrLE-15">
          <mxGeometry width="50" height="50" relative="1" as="geometry">
            <mxPoint x="787" y="370" as="sourcePoint" />
            <mxPoint x="827" y="385" as="targetPoint" />
          </mxGeometry>
        </mxCell>
        <mxCell id="GJn4sG62kLBuVspIbrLE-19" value="" style="endArrow=none;html=1;rounded=0;entryX=0;entryY=0.5;entryDx=0;entryDy=0;exitX=1;exitY=0.5;exitDx=0;exitDy=0;" edge="1" parent="1" source="_-6VbGl6MHD9hkDtcDc3-25" target="GJn4sG62kLBuVspIbrLE-15">
          <mxGeometry width="50" height="50" relative="1" as="geometry">
            <mxPoint x="790" y="320" as="sourcePoint" />
            <mxPoint x="820" y="305" as="targetPoint" />
          </mxGeometry>
        </mxCell>
      </root>
    </mxGraphModel>
  </diagram>
</mxfile>
